<svg width="24" height="24" viewBox="0 0 24 24" fill="none" xmlns="http://www.w3.org/2000/svg">
<path opacity="0.4" d="M18 2H6C3.79086 2 2 3.61177 2 5.6V16.4C2 18.0778 3.27532 19.4875 5.00111 19.8868C5.32039 19.9607 5.6551 20 6 20H18C18.3449 20 18.6796 19.9607 18.9989 19.8868C20.7247 19.4875 22 18.0778 22 16.4V5.6C22 3.61178 20.2091 2 18 2Z" fill="#28303F"/>
<circle r="3" transform="matrix(1 0 0 -1 12 10)" fill="#28303F"/>
<path d="M5.99987 22H17.9999C18.3448 22 18.6795 21.9563 18.9988 21.8743C18.9317 18.0663 15.8239 15 11.9999 15C8.17588 15 5.06805 18.0663 5.00098 21.8743C5.32026 21.9563 5.65497 22 5.99987 22Z" fill="#28303F"/>
</svg>
